<svg xmlns="http://www.w3.org/2000/svg" version="1.1" xmlns:xlink="http://www.w3.org/1999/xlink" xmlns:svgjs="http://svgjs.com/svgjs" width="1200pt" height="1200pt"><svg width="1200pt" height="1200pt" version="1.1" viewBox="0 0 1200 1200" xmlns="http://www.w3.org/2000/svg">
 <g>
  <path d="m299.66 206.65c-61.691 0-112.11 50.422-112.11 112.11v750.05c0 61.691 50.422 112.11 112.11 112.11h600.7c61.688 0 112.11-50.422 112.11-112.11l-0.003906-750.05c0-61.688-50.422-112.11-112.11-112.11h-94.117v37.508h94.117c41.422 0 74.602 33.18 74.602 74.602l0.003906 750.05c0 41.422-33.18 74.602-74.602 74.602l-600.7 0.003906c-41.422 0-74.602-33.18-74.602-74.602l-0.003906-750.05c0-41.422 33.18-74.602 74.602-74.602h94.117l0.003906-37.508z"></path>
  <path d="m543.82 37.508c-41.199 0-75.02 33.82-75.02 75.02v18.684h-18.824c-41.199 0-75.02 33.82-75.02 75.02v37.508c0 41.199 33.82 75.02 75.02 75.02h300.07c41.199 0 75.02-33.82 75.02-75.02v-37.508c0-41.199-33.82-75.02-75.02-75.02l-18.824 0.003906v-18.688c0-41.199-33.82-75.02-75.02-75.02zm0 37.508h112.39c20.934 0 37.508 16.578 37.508 37.508v37.512c0.015625 4.9766 2.0078 9.7383 5.5391 13.242 3.5312 3.5078 8.3086 5.4648 13.281 5.4453h37.508c20.934 0 37.508 16.578 37.508 37.508v37.508c0 20.934-16.578 37.508-37.508 37.508l-300.07 0.003906c-20.934 0-37.508-16.578-37.508-37.508v-37.512c0-20.934 16.578-37.508 37.508-37.508h37.508c4.9766 0.019532 9.7539-1.9375 13.285-5.4453 3.5273-3.5039 5.5234-8.2656 5.5391-13.242v-37.508c0-20.934 16.578-37.508 37.508-37.508z"></path>
  <path d="m412.46 393.78c-51.555 0-93.703 42.148-93.703 93.703 0 51.555 42.148 93.703 93.703 93.703 4.9727 0.019531 9.75-1.9375 13.281-5.4414 3.5312-3.5039 5.5234-8.2695 5.5391-13.242-0.015625-4.9727-2.0078-9.7383-5.5391-13.242-3.5312-3.5039-8.3086-5.4609-13.281-5.4414-31.289 0-56.195-25.047-56.195-56.332 0-31.289 24.906-56.195 56.195-56.195 19.367 0 37.305 9.9023 47.613 26.297 2.6562 4.2031 6.8789 7.1797 11.734 8.2695 4.8555 1.0898 9.9453 0.20703 14.148-2.457 4.1875-2.6367 7.1641-6.8242 8.2812-11.645 1.1133-4.8242 0.27734-9.8906-2.332-14.102-17.145-27.27-47.234-43.875-79.445-43.875z"></path>
  <path d="m412.46 618.7c-51.555 0-93.703 42.289-93.703 93.844 0 51.555 42.148 93.703 93.703 93.703 51.555 0 93.844-42.148 93.844-93.703 0-51.555-42.289-93.844-93.844-93.844zm0 37.508c31.289 0 56.332 25.047 56.332 56.332 0 31.289-25.047 56.195-56.332 56.195-31.289 0-56.195-24.906-56.195-56.195 0-31.289 24.906-56.332 56.195-56.332z"></path>
  <path d="m412.46 843.75c-51.555 0-93.703 42.148-93.703 93.703s42.148 93.844 93.703 93.844c51.555 0 93.844-42.289 93.844-93.844s-42.289-93.703-93.844-93.703zm0 37.508c31.289 0 56.332 24.906 56.332 56.195s-25.047 56.332-56.332 56.332c-31.289 0-56.195-25.047-56.195-56.332 0-31.289 24.906-56.195 56.195-56.195z"></path>
  <path d="m581.18 412.46c-4.9414 0.039062-9.6641 2.0273-13.148 5.5352l-99.238 99.238-43.047-43.043c-3.5195-3.5352-8.3008-5.5234-13.285-5.5234-4.9883 0-9.7695 1.9883-13.289 5.5234-3.5352 3.5156-5.5195 8.3008-5.5195 13.285 0 4.9883 1.9844 9.7695 5.5195 13.289l56.332 56.195c3.5156 3.4883 8.2656 5.4492 13.219 5.4492 4.9531 0 9.707-1.9609 13.219-5.4492l112.53-112.39c3.5352-3.5195 5.5195-8.3008 5.5195-13.289 0-4.9844-1.9844-9.7656-5.5195-13.285-3.5156-3.5391-8.2969-5.5312-13.289-5.5352z"></path>
  <path d="m618.7 487.48c-4.9766 0.019531-9.7383 2.0117-13.242 5.543-3.5039 3.5273-5.4648 8.3086-5.4453 13.281 0.019532 4.9492 1.9922 9.6953 5.4922 13.195s8.2461 5.4727 13.195 5.4922h243.74c4.9766 0.019531 9.7539-1.9414 13.285-5.4453s5.5234-8.2656 5.5391-13.242c0.019532-4.9961-1.957-9.7969-5.4883-13.332-3.5352-3.5352-8.3359-5.5117-13.336-5.4922z"></path>
  <path d="m581.18 693.71c-4.9727 0.015625-9.7383 2.0078-13.242 5.5391s-5.4609 8.3086-5.4414 13.281c0.015625 4.9531 1.9922 9.6953 5.4922 13.195s8.2422 5.4766 13.191 5.4922h281.25c4.9766 0.019532 9.7539-1.9375 13.285-5.4414 3.5312-3.5078 5.5234-8.2695 5.5391-13.246 0.019532-4.9961-1.957-9.7969-5.4883-13.332-3.5352-3.5312-8.3359-5.5117-13.336-5.4883z"></path>
  <path d="m581.18 918.77c-4.9492 0.015625-9.6914 1.9883-13.191 5.4922-3.5 3.5-5.4766 8.2422-5.4922 13.191-0.019531 4.9766 1.9375 9.7539 5.4414 13.285 3.5039 3.5273 8.2695 5.5234 13.242 5.5391h281.25c5 0.019531 9.8008-1.957 13.336-5.4922 3.5312-3.5352 5.5078-8.332 5.4883-13.332-0.015624-4.9727-2.0078-9.7383-5.5391-13.242-3.5312-3.5039-8.3086-5.4609-13.285-5.4414z"></path>
 </g>
</svg><style>@media (prefers-color-scheme: light) { :root { filter: none; } }
</style></svg>